<svg width="34" height="34" viewBox="0 0 34 34" fill="none" xmlns="http://www.w3.org/2000/svg">
<path d="M10.5137 23V14.5029H10.4043L7.89551 16.3213V15.0225L10.5205 13.1357H11.7441V23H10.5137ZM15.1616 23V15.6309H16.351V16.752H16.4604C16.6245 16.3555 16.8751 16.0479 17.2123 15.8291C17.5541 15.6104 17.9666 15.501 18.4496 15.501C18.7823 15.501 19.0808 15.5557 19.3452 15.665C19.6095 15.7744 19.8373 15.9271 20.0287 16.123C20.2202 16.3145 20.3728 16.5378 20.4868 16.793H20.5961C20.7283 16.5332 20.906 16.3076 21.1293 16.1162C21.3526 15.9202 21.6101 15.7699 21.9018 15.665C22.198 15.5557 22.5148 15.501 22.852 15.501C23.3533 15.501 23.7771 15.5944 24.1235 15.7812C24.4744 15.9681 24.741 16.2415 24.9233 16.6016C25.1056 16.957 25.1967 17.3923 25.1967 17.9072V23H24.0073V18.1807C24.0073 17.8161 23.9503 17.5153 23.8364 17.2783C23.727 17.0368 23.5584 16.8568 23.3305 16.7383C23.1026 16.6152 22.8155 16.5537 22.4692 16.5537C22.1274 16.5537 21.8289 16.6312 21.5737 16.7861C21.3185 16.9411 21.1202 17.1484 20.9789 17.4082C20.8377 17.6634 20.767 17.9482 20.767 18.2627V23H19.5776V17.9961C19.5776 17.7044 19.5138 17.4515 19.3862 17.2373C19.2631 17.0186 19.0854 16.8499 18.853 16.7314C18.6251 16.613 18.3562 16.5537 18.0463 16.5537C17.7273 16.5537 17.4379 16.638 17.1782 16.8066C16.923 16.9753 16.7202 17.2031 16.5698 17.4902C16.4239 17.7728 16.351 18.0872 16.351 18.4336V23H15.1616Z" fill="#EDF0F2" fill-opacity="0.6"/>
</svg>
