<svg width="16" height="16" viewBox="0 0 16 16" fill="none" xmlns="http://www.w3.org/2000/svg">
<path d="M10.6667 2V4.66667M5.33341 2V4.66667M2.66675 7.33333H13.3334M2.66675 4.66667C2.66675 4.31304 2.80722 3.97391 3.05727 3.72386C3.30732 3.47381 3.64646 3.33333 4.00008 3.33333H12.0001C12.3537 3.33333 12.6928 3.47381 12.9429 3.72386C13.1929 3.97391 13.3334 4.31304 13.3334 4.66667V12.6667C13.3334 13.0203 13.1929 13.3594 12.9429 13.6095C12.6928 13.8595 12.3537 14 12.0001 14H4.00008C3.64646 14 3.30732 13.8595 3.05727 13.6095C2.80722 13.3594 2.66675 13.0203 2.66675 12.6667V4.66667Z" stroke="#EDF0F2" stroke-width="1.33" stroke-linecap="round" stroke-linejoin="round"/>
</svg>
