<svg width="28" height="28" viewBox="0 0 28 28" fill="none" xmlns="http://www.w3.org/2000/svg">
<path d="M17.5 8C17.5 7.33696 17.2366 6.70107 16.7678 6.23223C16.2989 5.76339 15.663 5.5 15 5.5C14.337 5.5 13.7011 5.76339 13.2322 6.23223C12.7634 6.70107 12.5 7.33696 12.5 8V19C12.5 19.663 12.2366 20.2989 11.7678 20.7678C11.2989 21.2366 10.663 21.5 10 21.5C9.33696 21.5 8.70107 21.2366 8.23223 20.7678C7.76339 20.2989 7.5 19.663 7.5 19M20 17L15 22L20 17ZM15 17L20 22L15 17ZM9 11.5H16H9Z" stroke="#EDF0F2" stroke-opacity="0.6"/>
</svg>
