<svg width="28" height="28" viewBox="0 0 28 28" fill="none" xmlns="http://www.w3.org/2000/svg">
<path d="M8.70699 13L11.354 15.646L10.647 16.354L6.79199 12.5L10.645 8.646L11.353 9.354L8.70699 12H14.5C15.2223 12 15.9375 12.1423 16.6048 12.4187C17.272 12.6951 17.8784 13.1002 18.3891 13.6109C18.8998 14.1216 19.3049 14.7279 19.5813 15.3952C19.8577 16.0625 20 16.7777 20 17.5V19H19V17.5C19 16.909 18.8836 16.3239 18.6574 15.7779C18.4313 15.232 18.0998 14.7359 17.682 14.318C17.2641 13.9002 16.768 13.5687 16.2221 13.3425C15.6761 13.1164 15.0909 13 14.5 13H8.70699Z" fill="#EDF0F2" fill-opacity="0.6"/>
</svg>
