<svg width="28" height="28" viewBox="0 0 28 28" fill="none" xmlns="http://www.w3.org/2000/svg">
<path d="M17 11V17H20V11H17ZM16.5 10H20.5C20.6326 10 20.7598 10.0527 20.8536 10.1464C20.9473 10.2402 21 10.3674 21 10.5V17.5C21 17.6326 20.9473 17.7598 20.8536 17.8536C20.7598 17.9473 20.6326 18 20.5 18H16.5C16.3674 18 16.2402 17.9473 16.1464 17.8536C16.0527 17.7598 16 17.6326 16 17.5V10.5C16 10.3674 16.0527 10.2402 16.1464 10.1464C16.2402 10.0527 16.3674 10 16.5 10Z" fill="#EDF0F2" fill-opacity="0.6"/>
<path d="M18 7H19V10.5H18V7ZM18 17.5H19V21H18V17.5Z" fill="#EDF0F2" fill-opacity="0.6"/>
<path d="M9 8V19H12V8H9ZM8.5 7H12.5C12.6326 7 12.7598 7.05268 12.8536 7.14645C12.9473 7.24021 13 7.36739 13 7.5V19.5C13 19.6326 12.9473 19.7598 12.8536 19.8536C12.7598 19.9473 12.6326 20 12.5 20H8.5C8.36739 20 8.24021 19.9473 8.14645 19.8536C8.05268 19.7598 8 19.6326 8 19.5V7.5C8 7.36739 8.05268 7.24021 8.14645 7.14645C8.24021 7.05268 8.36739 7 8.5 7Z" fill="#EDF0F2" fill-opacity="0.6"/>
<path d="M10 4H11V9H10V4ZM10 18H11V23H10V18ZM8.5 9H10V10H8.5V9ZM11 9H12.5V10H11V9ZM10 10H11V11H10V10ZM8.5 11H10V12H8.5V11ZM11 11H12.5V12H11V11ZM10 12H11V13H10V12ZM8.5 13H10V14H8.5V13ZM11 13H12.5V14H11V13ZM10 14H11V15H10V14ZM8.5 15H10V16H8.5V15ZM11 15H12.5V16H11V15ZM10 16H11V17H10V16ZM8.5 17H10V18H8.5V17ZM11 17H12.5V18H11V17Z" fill="#EDF0F2" fill-opacity="0.6"/>
</svg>
