<svg width="41" height="40" viewBox="0 0 41 40" fill="none" xmlns="http://www.w3.org/2000/svg">
<path d="M3.64585 21.7331C3.83779 22.4309 4.13847 23.0745 4.54788 23.6647C4.95729 24.255 5.4377 24.7653 5.99135 25.1992C6.54499 25.6319 7.1641 25.9692 7.85088 26.2099C8.53656 26.4507 9.25219 26.5705 9.99889 26.5705C11.1295 26.5705 12.1158 26.3353 12.9591 25.8671C13.8012 25.3978 14.4758 24.863 14.9806 24.2605H19.0602C18.6752 25.0793 18.176 25.8371 17.5624 26.535C16.9489 27.2329 16.251 27.8409 15.4688 28.3579C14.6866 28.8761 13.8322 29.2788 12.9058 29.5673C11.9794 29.8558 11.0108 30 10 30C8.62865 30 7.33385 29.7348 6.11894 29.2056C4.90292 28.6764 3.84445 27.9607 2.94242 27.0576C2.04039 26.1556 1.32364 25.096 0.794408 23.8811C0.265173 22.6661 0 21.3725 0 20C0 18.6286 0.264063 17.335 0.794408 16.1189C1.32364 14.904 2.03928 13.8444 2.94242 12.9424C3.84445 12.0404 4.90403 11.3248 6.11894 10.7944C7.33385 10.2652 8.62754 10 10 10C11.3714 10 12.665 10.2652 13.8811 10.7944C15.096 11.3236 16.1556 12.0393 17.0576 12.9424C17.9596 13.8444 18.6764 14.904 19.2056 16.1189C19.7348 17.335 20 18.6275 20 20C20 20.3129 19.9878 20.6136 19.9634 20.902C19.939 21.1905 19.9035 21.4679 19.8547 21.7319H3.64585V21.7331ZM16.3519 18.3036C16.1589 17.6057 15.8649 16.9555 15.4677 16.3542C15.0705 15.7528 14.5889 15.2347 14.0242 14.802C13.4583 14.3692 12.8381 14.032 12.1647 13.7912C11.4912 13.5504 10.7689 13.4306 9.99889 13.4306C9.25219 13.4306 8.53656 13.5571 7.85088 13.8101C7.16521 14.063 6.53944 14.4059 5.97359 14.8386C5.40774 15.2713 4.92622 15.7839 4.53012 16.373C4.13292 16.9633 3.83779 17.6068 3.64585 18.3047H16.3519V18.3036Z" fill="#FFDE02"/>
<path d="M20.6112 12.3832L23.0655 10.0011L30.3571 17.5457L37.6488 10.0011L40.1031 12.3832L32.7404 20L40.1042 27.6168L37.6499 29.9989L30.3582 22.4542L23.0666 29.9989L20.6123 27.6168L27.975 20L20.6112 12.3832Z" fill="#FFDE02"/>
</svg>
