<svg width="122" height="40" viewBox="0 0 122 40" fill="none" xmlns="http://www.w3.org/2000/svg">
<path d="M3.64585 21.7331C3.83779 22.4309 4.13847 23.0745 4.54788 23.6647C4.95729 24.255 5.4377 24.7653 5.99135 25.1992C6.54499 25.6319 7.1641 25.9692 7.85088 26.2099C8.53656 26.4507 9.25219 26.5705 9.99889 26.5705C11.1295 26.5705 12.1158 26.3353 12.9591 25.8671C13.8012 25.3978 14.4758 24.863 14.9806 24.2605H19.0602C18.6752 25.0793 18.176 25.8371 17.5624 26.535C16.9489 27.2329 16.251 27.8409 15.4688 28.3579C14.6866 28.8761 13.8322 29.2788 12.9058 29.5673C11.9794 29.8558 11.0108 30 10 30C8.62865 30 7.33385 29.7348 6.11894 29.2056C4.90292 28.6764 3.84445 27.9607 2.94242 27.0576C2.04039 26.1556 1.32364 25.096 0.794408 23.8811C0.265173 22.6661 0 21.3725 0 20C0 18.6286 0.264063 17.335 0.794408 16.1189C1.32364 14.904 2.03928 13.8444 2.94242 12.9424C3.84445 12.0404 4.90403 11.3248 6.11894 10.7944C7.33385 10.2652 8.62754 10 10 10C11.3714 10 12.665 10.2652 13.8811 10.7944C15.096 11.3236 16.1556 12.0393 17.0576 12.9424C17.9596 13.8444 18.6764 14.904 19.2056 16.1189C19.7348 17.335 20 18.6275 20 20C20 20.3129 19.9878 20.6136 19.9634 20.902C19.939 21.1905 19.9035 21.4679 19.8547 21.7319H3.64585V21.7331ZM16.3519 18.3036C16.1589 17.6057 15.8649 16.9555 15.4677 16.3542C15.0705 15.7528 14.5889 15.2347 14.0242 14.802C13.4583 14.3692 12.8381 14.032 12.1647 13.7912C11.4912 13.5504 10.7689 13.4306 9.99889 13.4306C9.25219 13.4306 8.53656 13.5571 7.85088 13.8101C7.16521 14.063 6.53944 14.4059 5.97359 14.8386C5.40774 15.2713 4.92622 15.7839 4.53012 16.373C4.13292 16.9633 3.83779 17.6068 3.64585 18.3047H16.3519V18.3036Z" fill="#070E20"/>
<path d="M20.6112 12.3832L23.0655 10.0011L30.3571 17.5457L37.6488 10.0011L40.1031 12.3832L32.7404 20L40.1042 27.6168L37.6499 29.9989L30.3582 22.4542L23.0666 29.9989L20.6123 27.6168L27.975 20L20.6112 12.3832Z" fill="#070E20"/>
<path d="M42.2345 19.4941C42.2345 18.1948 42.4808 16.9666 42.9745 15.8116C43.4672 14.6566 44.1473 13.6458 45.0138 12.7793C45.8803 11.9128 46.8911 11.2338 48.0461 10.74C49.2011 10.2474 50.4282 10 51.7286 10C53.0289 10 54.2549 10.2474 55.411 10.74C56.566 11.2338 57.5768 11.9128 58.4433 12.7793C59.3098 13.6458 59.9888 14.6566 60.4826 15.8116C60.9752 16.9666 61.2226 18.1937 61.2226 19.4941V29.4208H57.4681V19.3132C57.4681 18.5188 57.3172 17.7732 57.0165 17.0753C56.7158 16.3775 56.3064 15.7706 55.7894 15.2524C55.2712 14.7354 54.6643 14.326 53.9664 14.0253C53.2686 13.7246 52.523 13.5737 51.7286 13.5737C50.9342 13.5737 50.1886 13.7246 49.4907 14.0253C48.7928 14.326 48.1848 14.7354 47.6678 15.2524C47.1496 15.7706 46.7413 16.3775 46.4406 17.0753C46.14 17.7732 45.9891 18.5188 45.9891 19.3132V29.4208H42.2345V19.4941Z" fill="#070E20"/>
<path d="M67.4671 21.7331C67.6591 22.4309 67.9597 23.0745 68.3691 23.6647C68.7786 24.255 69.259 24.7653 69.8126 25.1992C70.3663 25.6319 70.9854 25.9692 71.6722 26.2099C72.3578 26.4507 73.0735 26.5705 73.8202 26.5705C74.9508 26.5705 75.9371 26.3353 76.7803 25.8671C77.6225 25.3978 78.297 24.863 78.8019 24.2605H82.8815C82.4965 25.0793 81.9972 25.8371 81.3837 26.535C80.7701 27.2329 80.0723 27.8409 79.29 28.3579C78.5078 28.8761 77.6535 29.2788 76.7271 29.5673C75.8007 29.8558 74.832 30 73.8213 30C72.4499 30 71.1551 29.7348 69.9402 29.2056C68.7242 28.6764 67.6657 27.9607 66.7637 27.0576C65.8617 26.1556 65.1449 25.096 64.6157 23.8811C64.0865 22.6661 63.8213 21.3725 63.8213 20C63.8213 18.6286 64.0854 17.335 64.6157 16.1189C65.1449 14.904 65.8606 13.8444 66.7637 12.9424C67.6657 12.0404 68.7253 11.3248 69.9402 10.7944C71.1551 10.2652 72.4488 10 73.8213 10C75.1926 10 76.4863 10.2652 77.7023 10.7944C78.9173 11.3236 79.9768 12.0393 80.8789 12.9424C81.7809 13.8444 82.4976 14.904 83.0269 16.1189C83.5561 17.335 83.8213 18.6275 83.8213 20C83.8213 20.3129 83.8091 20.6136 83.7847 20.902C83.7603 21.1905 83.7248 21.4679 83.6759 21.7319H67.4671V21.7331ZM80.1732 18.3036C79.9802 17.6057 79.6861 16.9555 79.2889 16.3542C78.8917 15.7528 78.4102 15.2347 77.8455 14.802C77.2796 14.3692 76.6594 14.032 75.9859 13.7912C75.3125 13.5504 74.5902 13.4306 73.8202 13.4306C73.0735 13.4306 72.3578 13.5571 71.6722 13.8101C70.9865 14.063 70.3607 14.4059 69.7949 14.8386C69.229 15.2713 68.7475 15.7839 68.3514 16.373C67.9542 16.9633 67.6591 17.6068 67.4671 18.3047H80.1732V18.3036Z" fill="#070E20"/>
<path d="M94.3594 29.9989C92.1692 29.9989 90.2742 29.4874 88.6743 28.4644C87.0732 27.4414 85.9493 26.0401 85.2992 24.2594H89.3056C89.8115 25.0294 90.515 25.6252 91.417 26.0468C92.319 26.4684 93.2876 26.6781 94.3228 26.6781C95.5743 26.6781 96.5429 26.4562 97.2286 26.0102C97.9143 25.5653 98.2571 24.9573 98.2571 24.1873C98.2571 23.5615 98.0097 23.0811 97.5171 22.7438C97.0233 22.4065 96.199 22.1302 95.044 21.9139L92.228 21.3724C90.0135 20.963 88.4013 20.314 87.3906 19.423C86.3798 18.5332 85.8739 17.3294 85.8739 15.8127C85.8739 14.9706 86.0603 14.1939 86.4331 13.4838C86.8059 12.7737 87.3229 12.1602 87.9853 11.6432C88.6465 11.1261 89.4343 10.7223 90.3496 10.4338C91.2639 10.1453 92.2746 10.0011 93.3819 10.0011C95.4268 10.0011 97.1964 10.4882 98.6887 11.4634C100.181 12.4376 101.227 13.7923 101.83 15.5242H97.8233C97.4139 14.8263 96.8181 14.2849 96.0359 13.8999C95.2537 13.5149 94.3805 13.3218 93.4185 13.3218C92.2635 13.3218 91.3671 13.5326 90.7291 13.9532C90.0911 14.3748 89.7727 14.9706 89.7727 15.7395C89.7727 16.2931 90.019 16.738 90.5127 17.0753C91.0054 17.4126 91.8175 17.6889 92.9492 17.9052L95.7651 18.4467C97.9542 18.8561 99.5674 19.524 100.603 20.4504C101.637 21.3769 102.155 22.5984 102.155 24.114C102.155 24.9806 101.962 25.7694 101.577 26.4784C101.192 27.1885 100.656 27.8087 99.9702 28.3379C99.2845 28.8672 98.4601 29.2766 97.4971 29.565C96.5374 29.8546 95.4911 29.9989 94.3594 29.9989Z" fill="#070E20"/>
<path d="M112.769 29.9989C110.579 29.9989 108.684 29.4874 107.084 28.4644C105.483 27.4414 104.359 26.0401 103.709 24.2594H107.716C108.221 25.0294 108.925 25.6252 109.827 26.0468C110.729 26.4684 111.698 26.6781 112.733 26.6781C113.984 26.6781 114.953 26.4562 115.639 26.0102C116.324 25.5653 116.667 24.9573 116.667 24.1873C116.667 23.5615 116.42 23.0811 115.927 22.7438C115.433 22.4065 114.609 22.1302 113.454 21.9139L110.638 21.3724C108.423 20.963 106.811 20.314 105.8 19.423C104.79 18.5332 104.284 17.3294 104.284 15.8127C104.284 14.9706 104.47 14.1939 104.843 13.4838C105.216 12.7737 105.733 12.1602 106.395 11.6432C107.056 11.1261 107.844 10.7223 108.76 10.4338C109.674 10.1453 110.685 10.0011 111.792 10.0011C113.837 10.0011 115.606 10.4882 117.099 11.4634C118.591 12.4376 119.637 13.7923 120.24 15.5242H116.233C115.824 14.8263 115.228 14.2849 114.446 13.8999C113.664 13.5149 112.79 13.3218 111.828 13.3218C110.673 13.3218 109.777 13.5326 109.139 13.9532C108.501 14.3748 108.183 14.9706 108.183 15.7395C108.183 16.2931 108.429 16.738 108.923 17.0753C109.415 17.4126 110.227 17.6889 111.359 17.9052L114.175 18.4467C116.364 18.8561 117.977 19.524 119.013 20.4504C120.047 21.3769 120.565 22.5984 120.565 24.114C120.565 24.9806 120.372 25.7694 119.987 26.4784C119.602 27.1885 119.066 27.8087 118.38 28.3379C117.694 28.8672 116.87 29.2766 115.907 29.565C114.947 29.8546 113.901 29.9989 112.769 29.9989Z" fill="#070E20"/>
</svg>
