<svg width="16" height="16" viewBox="0 0 16 16" fill="none" xmlns="http://www.w3.org/2000/svg">
<path d="M10.6667 5.33335V4.00002C10.6667 3.6464 10.5262 3.30726 10.2761 3.05721C10.0261 2.80716 9.68695 2.66669 9.33332 2.66669H3.99999C3.64637 2.66669 3.30723 2.80716 3.05718 3.05721C2.80713 3.30726 2.66666 3.6464 2.66666 4.00002V9.33335C2.66666 9.68698 2.80713 10.0261 3.05718 10.2762C3.30723 10.5262 3.64637 10.6667 3.99999 10.6667H5.33332M5.33332 6.66669C5.33332 6.31307 5.4738 5.97393 5.72385 5.72388C5.9739 5.47383 6.31303 5.33335 6.66666 5.33335H12C12.3536 5.33335 12.6928 5.47383 12.9428 5.72388C13.1928 5.97393 13.3333 6.31307 13.3333 6.66669V12C13.3333 12.3536 13.1928 12.6928 12.9428 12.9428C12.6928 13.1929 12.3536 13.3334 12 13.3334H6.66666C6.31303 13.3334 5.9739 13.1929 5.72385 12.9428C5.4738 12.6928 5.33332 12.3536 5.33332 12V6.66669Z" stroke="#141D22" stroke-width="1.33" stroke-linecap="round" stroke-linejoin="round"/>
</svg>
