<svg width="20" height="20" viewBox="0 0 20 20" fill="none" xmlns="http://www.w3.org/2000/svg">
<path d="M5.83333 3.33334V5.83334M5.83333 10.8333V16.6667M14.1667 3.33334V5.83334M14.1667 14.1667V16.6667M3.33333 6.66667C3.33333 6.44566 3.42113 6.23369 3.57741 6.07741C3.73369 5.92113 3.94565 5.83334 4.16667 5.83334H7.5C7.72101 5.83334 7.93298 5.92113 8.08926 6.07741C8.24554 6.23369 8.33333 6.44566 8.33333 6.66667V10C8.33333 10.221 8.24554 10.433 8.08926 10.5893C7.93298 10.7455 7.72101 10.8333 7.5 10.8333H4.16667C3.94565 10.8333 3.73369 10.7455 3.57741 10.5893C3.42113 10.433 3.33333 10.221 3.33333 10V6.66667ZM11.6667 6.66667C11.6667 6.44566 11.7545 6.23369 11.9107 6.07741C12.067 5.92113 12.279 5.83334 12.5 5.83334H15.8333C16.0543 5.83334 16.2663 5.92113 16.4226 6.07741C16.5789 6.23369 16.6667 6.44566 16.6667 6.66667V13.3333C16.6667 13.5543 16.5789 13.7663 16.4226 13.9226C16.2663 14.0789 16.0543 14.1667 15.8333 14.1667H12.5C12.279 14.1667 12.067 14.0789 11.9107 13.9226C11.7545 13.7663 11.6667 13.5543 11.6667 13.3333V6.66667Z" stroke="#6C8595" stroke-width="1.67" stroke-linecap="round" stroke-linejoin="round"/>
</svg>
