<svg width="20" height="20" viewBox="0 0 20 20" fill="none" xmlns="http://www.w3.org/2000/svg">
<path d="M3.33337 4.16667C3.33337 4.38768 3.42117 4.59964 3.57745 4.75592C3.73373 4.9122 3.94569 5 4.16671 5C4.38772 5 4.59968 4.9122 4.75596 4.75592C4.91224 4.59964 5.00004 4.38768 5.00004 4.16667C5.00004 3.94565 4.91224 3.73369 4.75596 3.57741C4.59968 3.42113 4.38772 3.33333 4.16671 3.33333C3.94569 3.33333 3.73373 3.42113 3.57745 3.57741C3.42117 3.73369 3.33337 3.94565 3.33337 4.16667Z" stroke="#141D22" stroke-width="1.67" stroke-linecap="round" stroke-linejoin="round"/>
<path d="M9.16671 4.16667C9.16671 4.38768 9.2545 4.59964 9.41079 4.75592C9.56707 4.9122 9.77903 5 10 5C10.2211 5 10.433 4.9122 10.5893 4.75592C10.7456 4.59964 10.8334 4.38768 10.8334 4.16667C10.8334 3.94565 10.7456 3.73369 10.5893 3.57741C10.433 3.42113 10.2211 3.33333 10 3.33333C9.77903 3.33333 9.56707 3.42113 9.41079 3.57741C9.2545 3.73369 9.16671 3.94565 9.16671 4.16667Z" stroke="#141D22" stroke-width="1.67" stroke-linecap="round" stroke-linejoin="round"/>
<path d="M15 4.16667C15 4.38768 15.0878 4.59964 15.2441 4.75592C15.4004 4.9122 15.6124 5 15.8334 5C16.0544 5 16.2663 4.9122 16.4226 4.75592C16.5789 4.59964 16.6667 4.38768 16.6667 4.16667C16.6667 3.94565 16.5789 3.73369 16.4226 3.57741C16.2663 3.42113 16.0544 3.33333 15.8334 3.33333C15.6124 3.33333 15.4004 3.42113 15.2441 3.57741C15.0878 3.73369 15 3.94565 15 4.16667Z" stroke="#141D22" stroke-width="1.67" stroke-linecap="round" stroke-linejoin="round"/>
<path d="M3.33337 10C3.33337 10.221 3.42117 10.433 3.57745 10.5893C3.73373 10.7455 3.94569 10.8333 4.16671 10.8333C4.38772 10.8333 4.59968 10.7455 4.75596 10.5893C4.91224 10.433 5.00004 10.221 5.00004 10C5.00004 9.77899 4.91224 9.56703 4.75596 9.41074C4.59968 9.25446 4.38772 9.16667 4.16671 9.16667C3.94569 9.16667 3.73373 9.25446 3.57745 9.41074C3.42117 9.56703 3.33337 9.77899 3.33337 10Z" stroke="#141D22" stroke-width="1.67" stroke-linecap="round" stroke-linejoin="round"/>
<path d="M9.16671 10C9.16671 10.221 9.2545 10.433 9.41079 10.5893C9.56707 10.7455 9.77903 10.8333 10 10.8333C10.2211 10.8333 10.433 10.7455 10.5893 10.5893C10.7456 10.433 10.8334 10.221 10.8334 10C10.8334 9.77899 10.7456 9.56703 10.5893 9.41074C10.433 9.25446 10.2211 9.16667 10 9.16667C9.77903 9.16667 9.56707 9.25446 9.41079 9.41074C9.2545 9.56703 9.16671 9.77899 9.16671 10Z" stroke="#141D22" stroke-width="1.67" stroke-linecap="round" stroke-linejoin="round"/>
<path d="M15 10C15 10.221 15.0878 10.433 15.2441 10.5893C15.4004 10.7455 15.6124 10.8333 15.8334 10.8333C16.0544 10.8333 16.2663 10.7455 16.4226 10.5893C16.5789 10.433 16.6667 10.221 16.6667 10C16.6667 9.77899 16.5789 9.56703 16.4226 9.41074C16.2663 9.25446 16.0544 9.16667 15.8334 9.16667C15.6124 9.16667 15.4004 9.25446 15.2441 9.41074C15.0878 9.56703 15 9.77899 15 10Z" stroke="#141D22" stroke-width="1.67" stroke-linecap="round" stroke-linejoin="round"/>
<path d="M3.33337 15.8333C3.33337 16.0543 3.42117 16.2663 3.57745 16.4226C3.73373 16.5789 3.94569 16.6667 4.16671 16.6667C4.38772 16.6667 4.59968 16.5789 4.75596 16.4226C4.91224 16.2663 5.00004 16.0543 5.00004 15.8333C5.00004 15.6123 4.91224 15.4004 4.75596 15.2441C4.59968 15.0878 4.38772 15 4.16671 15C3.94569 15 3.73373 15.0878 3.57745 15.2441C3.42117 15.4004 3.33337 15.6123 3.33337 15.8333Z" stroke="#141D22" stroke-width="1.67" stroke-linecap="round" stroke-linejoin="round"/>
<path d="M9.16671 15.8333C9.16671 16.0543 9.2545 16.2663 9.41079 16.4226C9.56707 16.5789 9.77903 16.6667 10 16.6667C10.2211 16.6667 10.433 16.5789 10.5893 16.4226C10.7456 16.2663 10.8334 16.0543 10.8334 15.8333C10.8334 15.6123 10.7456 15.4004 10.5893 15.2441C10.433 15.0878 10.2211 15 10 15C9.77903 15 9.56707 15.0878 9.41079 15.2441C9.2545 15.4004 9.16671 15.6123 9.16671 15.8333Z" stroke="#141D22" stroke-width="1.67" stroke-linecap="round" stroke-linejoin="round"/>
<path d="M15 15.8333C15 16.0543 15.0878 16.2663 15.2441 16.4226C15.4004 16.5789 15.6124 16.6667 15.8334 16.6667C16.0544 16.6667 16.2663 16.5789 16.4226 16.4226C16.5789 16.2663 16.6667 16.0543 16.6667 15.8333C16.6667 15.6123 16.5789 15.4004 16.4226 15.2441C16.2663 15.0878 16.0544 15 15.8334 15C15.6124 15 15.4004 15.0878 15.2441 15.2441C15.0878 15.4004 15 15.6123 15 15.8333Z" stroke="#141D22" stroke-width="1.67" stroke-linecap="round" stroke-linejoin="round"/>
</svg>
