<svg width="20" height="20" viewBox="0 0 20 20" fill="none" xmlns="http://www.w3.org/2000/svg">
<path d="M16.2498 10.4767L9.99984 16.6667L3.74984 10.4767C3.3376 10.0756 3.01288 9.5934 2.79613 9.06059C2.57939 8.52777 2.47531 7.95585 2.49046 7.38083C2.50561 6.80582 2.63965 6.24017 2.88414 5.7195C3.12864 5.19884 3.47829 4.73443 3.91108 4.35554C4.34388 3.97664 4.85043 3.69146 5.39885 3.51796C5.94728 3.34445 6.52568 3.28638 7.09765 3.34739C7.66962 3.4084 8.22276 3.58719 8.72224 3.87248C9.22172 4.15777 9.65672 4.54339 9.99984 5.00506C10.3445 4.54674 10.78 4.16449 11.2791 3.88223C11.7782 3.59996 12.3303 3.42376 12.9006 3.36466C13.471 3.30555 14.0474 3.3648 14.5938 3.53872C15.1402 3.71263 15.6449 3.99745 16.0761 4.37536C16.5074 4.75327 16.856 5.21613 17.1002 5.73497C17.3444 6.25381 17.4788 6.81746 17.4951 7.39065C17.5114 7.96383 17.4092 8.53422 17.195 9.0661C16.9807 9.59798 16.6589 10.0799 16.2498 10.4817" stroke="#6C8595" stroke-width="1.67" stroke-linecap="round" stroke-linejoin="round"/>
</svg>
