<svg width="20" height="20" viewBox="0 0 20 20" fill="none" xmlns="http://www.w3.org/2000/svg">
<path d="M13.3333 5.00001H15.8333C16.0543 5.00001 16.2663 5.08781 16.4226 5.24409C16.5789 5.40037 16.6667 5.61233 16.6667 5.83334V15C16.6667 15.442 16.4911 15.866 16.1785 16.1785C15.866 16.4911 15.442 16.6667 15 16.6667M15 16.6667C14.558 16.6667 14.1341 16.4911 13.8215 16.1785C13.5089 15.866 13.3333 15.442 13.3333 15V4.16668C13.3333 3.94566 13.2455 3.7337 13.0893 3.57742C12.933 3.42114 12.721 3.33334 12.5 3.33334H4.16667C3.94565 3.33334 3.73369 3.42114 3.57741 3.57742C3.42113 3.7337 3.33333 3.94566 3.33333 4.16668V14.1667C3.33333 14.8297 3.59673 15.4656 4.06557 15.9344C4.53441 16.4033 5.17029 16.6667 5.83333 16.6667H15ZM6.66667 6.66668H10M6.66667 10H10M6.66667 13.3333H10" stroke="#6C8595" stroke-width="1.67" stroke-linecap="round" stroke-linejoin="round"/>
</svg>
