<svg width="20" height="20" viewBox="0 0 20 20" fill="none" xmlns="http://www.w3.org/2000/svg">
<path d="M14.1666 14.1667H16.921C17.2433 14.1667 17.5 13.8632 17.5 13.4965V12.8706C17.5 11.2899 16.3912 10 15.0201 10H12.48M9.16671 7.91671C9.16671 9.0673 8.23397 10 7.08337 10C5.93278 10 5.00004 9.0673 5.00004 7.91671C5.00004 6.76611 5.93278 5.83337 7.08337 5.83337C8.23397 5.83337 9.16671 6.76611 9.16671 7.91671ZM15.8334 5.41671C15.8334 6.5673 14.9006 7.50004 13.75 7.50004C12.5994 7.50004 11.6667 6.5673 11.6667 5.41671C11.6667 4.26611 12.5994 3.33337 13.75 3.33337C14.9006 3.33337 15.8334 4.26611 15.8334 5.41671ZM8.3534 12.5C9.72449 12.5 10.8334 13.7899 10.8334 15.3706V15.9965C10.8334 16.3632 10.5766 16.6667 10.2544 16.6667H3.9124C3.59557 16.6667 3.33337 16.3695 3.33337 15.9965V15.3706C3.33337 13.7836 4.44772 12.5 5.81334 12.5H8.3534Z" stroke="#141D22" stroke-width="1.67" stroke-linecap="round" stroke-linejoin="round"/>
</svg>
