<svg width="16" height="16" viewBox="0 0 16 16" fill="none" xmlns="http://www.w3.org/2000/svg">
<path fill-rule="evenodd" clip-rule="evenodd" d="M2.32997 9.34027C2.18024 9.12441 2.07028 8.88906 2.00009 8.63384V8.63343H7.92788C7.94573 8.53686 7.95871 8.43542 7.96764 8.32992C7.97657 8.22442 7.98103 8.11446 7.98103 8.00004C7.98103 7.49811 7.88406 7.02539 7.69051 6.58068C7.49696 6.13637 7.23483 5.74887 6.90495 5.41898C6.57506 5.08869 6.18756 4.82697 5.74325 4.63342C5.29853 4.43987 4.82541 4.3429 4.32389 4.3429C3.82196 4.3429 3.34884 4.43987 2.90453 4.63342C2.46022 4.82738 2.07272 5.08909 1.74283 5.41898C1.41254 5.74887 1.15082 6.13637 0.957275 6.58068C0.76332 7.02539 0.666748 7.49851 0.666748 8.00004C0.666748 8.50197 0.763726 8.97509 0.957275 9.4194C1.15082 9.86371 1.41295 10.2512 1.74283 10.5811C2.07272 10.9114 2.45982 11.1731 2.90453 11.3667C3.34884 11.5602 3.82237 11.6572 4.32389 11.6572C4.69354 11.6572 5.04777 11.6044 5.38658 11.4989C5.7254 11.3934 6.03783 11.2461 6.3239 11.0567C6.60996 10.8676 6.86519 10.6452 7.08957 10.39C7.31396 10.1348 7.49655 9.85762 7.63735 9.55817H6.14536C5.96074 9.7785 5.71403 9.97408 5.40606 10.1457C5.09768 10.3169 4.73696 10.403 4.32348 10.403C4.05041 10.403 3.78869 10.3591 3.53793 10.2711C3.28676 10.183 3.06034 10.0597 2.85787 9.90144C2.65539 9.74279 2.4797 9.55614 2.32997 9.34027ZM6.32349 6.6667C6.46875 6.88662 6.57628 7.1244 6.64688 7.37963V7.38003H2.00009C2.07028 7.12481 2.17822 6.88946 2.32348 6.6736C2.46834 6.45814 2.64444 6.27068 2.85138 6.11243C3.05831 5.95418 3.28717 5.8288 3.53793 5.73629C3.78869 5.64377 4.05041 5.59752 4.32348 5.59752C4.60508 5.59752 4.86924 5.64134 5.11553 5.72939C5.36183 5.81744 5.58865 5.94079 5.79559 6.09904C6.00213 6.25729 6.17823 6.44678 6.32349 6.6667Z" fill="#141D22"/>
<path d="M9.10211 4.34329L8.20456 5.21447L10.8976 8.00003L8.20497 10.7856L9.10252 11.6568L11.7692 8.89758L14.4359 11.6568L15.3334 10.7856L12.6404 8.00003L15.333 5.21447L14.4355 4.34329L11.7688 7.10248L9.10211 4.34329Z" fill="#141D22"/>
</svg>
