<svg width="20" height="20" viewBox="0 0 20 20" fill="none" xmlns="http://www.w3.org/2000/svg">
<path d="M5.83337 3.33337V5.83337M5.83337 10.8334V16.6667M14.1667 3.33337V5.83337M14.1667 14.1667V16.6667M3.33337 6.66671C3.33337 6.44569 3.42117 6.23373 3.57745 6.07745C3.73373 5.92117 3.94569 5.83337 4.16671 5.83337H7.50004C7.72105 5.83337 7.93302 5.92117 8.0893 6.07745C8.24558 6.23373 8.33337 6.44569 8.33337 6.66671V10C8.33337 10.2211 8.24558 10.433 8.0893 10.5893C7.93302 10.7456 7.72105 10.8334 7.50004 10.8334H4.16671C3.94569 10.8334 3.73373 10.7456 3.57745 10.5893C3.42117 10.433 3.33337 10.2211 3.33337 10V6.66671ZM11.6667 6.66671C11.6667 6.44569 11.7545 6.23373 11.9108 6.07745C12.0671 5.92117 12.279 5.83337 12.5 5.83337H15.8334C16.0544 5.83337 16.2663 5.92117 16.4226 6.07745C16.5789 6.23373 16.6667 6.44569 16.6667 6.66671V13.3334C16.6667 13.5544 16.5789 13.7663 16.4226 13.9226C16.2663 14.0789 16.0544 14.1667 15.8334 14.1667H12.5C12.279 14.1667 12.0671 14.0789 11.9108 13.9226C11.7545 13.7663 11.6667 13.5544 11.6667 13.3334V6.66671Z" stroke="#141D22" stroke-width="1.67" stroke-linecap="round" stroke-linejoin="round"/>
</svg>
